<svg _ngcontent-ng-c2070611396="" id="a" xmlns="http://www.w3.org/2000/svg" viewBox="0 0 521.53 532.04"><defs _ngcontent-ng-c2070611396=""><style _ngcontent-ng-c2070611396="">.b{font-family:CourierNewPSMT, 'Courier New';font-size:20.64px;fill: #fff;}.c,.d{stroke-width:2px;}.c,.d,.e,.f,.g{stroke:#fff;fill:#fff;stroke-miterlimit:10;}.d,.e,.g{fill:none;}.e{stroke-width:3px;}.f{stroke-width:9px;}.g{stroke-width:3px;}</style></defs><circle _ngcontent-ng-c2070611396="" cx="253.2" cy="270.26" r="213.46" class="e"></circle><text _ngcontent-ng-c2070611396="" transform="translate(106.97 147.06) rotate(-47.46)" class="b"><tspan _ngcontent-ng-c2070611396="" x="0" y="0">D</tspan></text><text _ngcontent-ng-c2070611396="" transform="translate(115.23 138.05) rotate(-43.75)" class="b"><tspan _ngcontent-ng-c2070611396="" x="0" y="0">I</tspan></text><text _ngcontent-ng-c2070611396="" transform="translate(124.06 129.59) rotate(-40.04)" class="b"><tspan _ngcontent-ng-c2070611396="" x="0" y="0">G</tspan></text><text _ngcontent-ng-c2070611396="" transform="translate(133.4 121.73) rotate(-36.34)" class="b"><tspan _ngcontent-ng-c2070611396="" x="0" y="0">I</tspan></text><text _ngcontent-ng-c2070611396="" transform="translate(143.26 114.47) rotate(-32.64)" class="b"><tspan _ngcontent-ng-c2070611396="" x="0" y="0">T</tspan></text><text _ngcontent-ng-c2070611396="" transform="translate(153.56 107.87) rotate(-28.96)" class="b"><tspan _ngcontent-ng-c2070611396="" x="0" y="0">A</tspan></text><text _ngcontent-ng-c2070611396="" transform="translate(164.26 101.94) rotate(-25.32)" class="b"><tspan _ngcontent-ng-c2070611396="" x="0" y="0">L</tspan></text><text _ngcontent-ng-c2070611396="" transform="translate(175.29 96.72) rotate(-21.71)" class="b"><tspan _ngcontent-ng-c2070611396="" x="0" y="0"></tspan></text><text _ngcontent-ng-c2070611396="" transform="translate(186.66 92.18) rotate(-18.07)" class="b"><tspan _ngcontent-ng-c2070611396="" x="0" y="0">L</tspan></text><text _ngcontent-ng-c2070611396="" transform="translate(198.3 88.38) rotate(-14.39)" class="b"><tspan _ngcontent-ng-c2070611396="" x="0" y="0">I</tspan></text><text _ngcontent-ng-c2070611396="" transform="translate(210.13 85.34) rotate(-10.69)" class="b"><tspan _ngcontent-ng-c2070611396="" x="0" y="0">B</tspan></text><text _ngcontent-ng-c2070611396="" transform="translate(222.14 83.06) rotate(-6.99)" class="b"><tspan _ngcontent-ng-c2070611396="" x="0" y="0">E</tspan></text><text _ngcontent-ng-c2070611396="" transform="translate(234.28 81.57) rotate(-3.28)" class="b"><tspan _ngcontent-ng-c2070611396="" x="0" y="0">R</tspan></text><text _ngcontent-ng-c2070611396="" transform="translate(246.49 80.86) rotate(.43)" class="b"><tspan _ngcontent-ng-c2070611396="" x="0" y="0">A</tspan></text><text _ngcontent-ng-c2070611396="" transform="translate(258.68 80.94) rotate(4.12)" class="b"><tspan _ngcontent-ng-c2070611396="" x="0" y="0">T</tspan></text><text _ngcontent-ng-c2070611396="" transform="translate(270.91 81.82) rotate(7.82)" class="b"><tspan _ngcontent-ng-c2070611396="" x="0" y="0">I</tspan></text><text _ngcontent-ng-c2070611396="" transform="translate(283.01 83.47) rotate(11.5)" class="b"><tspan _ngcontent-ng-c2070611396="" x="0" y="0">O</tspan></text><text _ngcontent-ng-c2070611396="" transform="translate(294.98 85.9) rotate(15.17)" class="b"><tspan _ngcontent-ng-c2070611396="" x="0" y="0">N</tspan></text><text _ngcontent-ng-c2070611396="" transform="translate(306.79 89.1) rotate(18.84)" class="b"><tspan _ngcontent-ng-c2070611396="" x="0" y="0"></tspan></text><text _ngcontent-ng-c2070611396="" transform="translate(318.37 93.04) rotate(22.52)" class="b"><tspan _ngcontent-ng-c2070611396="" x="0" y="0">M</tspan></text><text _ngcontent-ng-c2070611396="" transform="translate(329.66 97.72) rotate(26.19)" class="b"><tspan _ngcontent-ng-c2070611396="" x="0" y="0">O</tspan></text><text _ngcontent-ng-c2070611396="" transform="translate(340.65 103.11) rotate(29.88)" class="b"><tspan _ngcontent-ng-c2070611396="" x="0" y="0">V</tspan></text><text _ngcontent-ng-c2070611396="" transform="translate(351.25 109.19) rotate(33.56)" class="b"><tspan _ngcontent-ng-c2070611396="" x="0" y="0">E</tspan></text><text _ngcontent-ng-c2070611396="" transform="translate(361.43 115.94) rotate(37.26)" class="b"><tspan _ngcontent-ng-c2070611396="" x="0" y="0">M</tspan></text><text _ngcontent-ng-c2070611396="" transform="translate(371.18 123.35) rotate(40.99)" class="b"><tspan _ngcontent-ng-c2070611396="" x="0" y="0">E</tspan></text><text _ngcontent-ng-c2070611396="" transform="translate(380.4 131.35) rotate(44.71)" class="b"><tspan _ngcontent-ng-c2070611396="" x="0" y="0">N</tspan></text><text _ngcontent-ng-c2070611396="" transform="translate(389.1 139.96) rotate(48.45)" class="b"><tspan _ngcontent-ng-c2070611396="" x="0" y="0">T</tspan></text><text _ngcontent-ng-c2070611396="" transform="translate(397.21 149.09) rotate(52.19)" class="b"><tspan _ngcontent-ng-c2070611396="" x="0" y="0"></tspan></text><text _ngcontent-ng-c2070611396="" transform="translate(402.27 160.41) rotate(55.93) scale(1 .98)" class="b"><tspan _ngcontent-ng-c2070611396="" x="0" y="0">*</tspan></text><text _ngcontent-ng-c2070611396="" transform="translate(411.56 168.87) rotate(59.64)" class="b"><tspan _ngcontent-ng-c2070611396="" x="0" y="0"></tspan></text><text _ngcontent-ng-c2070611396="" transform="translate(417.75 179.42) rotate(63.33)" class="b"><tspan _ngcontent-ng-c2070611396="" x="0" y="0">C</tspan></text><text _ngcontent-ng-c2070611396="" transform="translate(423.29 190.29) rotate(67.58)" class="b"><tspan _ngcontent-ng-c2070611396="" x="0" y="0">O</tspan></text><text _ngcontent-ng-c2070611396="" transform="translate(428.03 201.6) rotate(70.65)" class="b"><tspan _ngcontent-ng-c2070611396="" x="0" y="0">N</tspan></text><text _ngcontent-ng-c2070611396="" transform="translate(432.08 213.12) rotate(74.35)" class="b"><tspan _ngcontent-ng-c2070611396="" x="0" y="0">S</tspan></text><text _ngcontent-ng-c2070611396="" transform="translate(435.39 224.9) rotate(78.07)" class="b"><tspan _ngcontent-ng-c2070611396="" x="0" y="0">C</tspan></text><text _ngcontent-ng-c2070611396="" transform="translate(437.92 236.85) rotate(81.81)" class="b"><tspan _ngcontent-ng-c2070611396="" x="0" y="0">I</tspan></text><text _ngcontent-ng-c2070611396="" transform="translate(439.67 248.96) rotate(85.55)" class="b"><tspan _ngcontent-ng-c2070611396="" x="0" y="0">O</tspan></text><text _ngcontent-ng-c2070611396="" transform="translate(440.63 261.15) rotate(89.28)" class="b"><tspan _ngcontent-ng-c2070611396="" x="0" y="0">U</tspan></text><text _ngcontent-ng-c2070611396="" transform="translate(440.79 273.37) rotate(93.01)" class="b"><tspan _ngcontent-ng-c2070611396="" x="0" y="0">S</tspan></text><text _ngcontent-ng-c2070611396="" transform="translate(440.15 285.57) rotate(96.72)" class="b"><tspan _ngcontent-ng-c2070611396="" x="0" y="0">N</tspan></text><text _ngcontent-ng-c2070611396="" transform="translate(438.73 297.73) rotate(100.42)" class="b"><tspan _ngcontent-ng-c2070611396="" x="0" y="0">E</tspan></text><text _ngcontent-ng-c2070611396="" transform="translate(436.52 309.74) rotate(104.11)" class="b"><tspan _ngcontent-ng-c2070611396="" x="0" y="0">S</tspan></text><text _ngcontent-ng-c2070611396="" transform="translate(433.55 321.61) rotate(107.79)" class="b"><tspan _ngcontent-ng-c2070611396="" x="0" y="0">S</tspan></text><text _ngcontent-ng-c2070611396="" transform="translate(429.82 333.25) rotate(111.47)" class="b"><tspan _ngcontent-ng-c2070611396="" x="0" y="0"></tspan></text><text _ngcontent-ng-c2070611396="" transform="translate(425.35 344.63) rotate(115.14)" class="b"><tspan _ngcontent-ng-c2070611396="" x="0" y="0">R</tspan></text><text _ngcontent-ng-c2070611396="" transform="translate(420.15 355.71) rotate(118.81)" class="b"><tspan _ngcontent-ng-c2070611396="" x="0" y="0">E</tspan></text><text _ngcontent-ng-c2070611396="" transform="translate(414.27 366.43) rotate(122.49)" class="b"><tspan _ngcontent-ng-c2070611396="" x="0" y="0">V</tspan></text><text _ngcontent-ng-c2070611396="" transform="translate(407.71 376.74) rotate(126.17)" class="b"><tspan _ngcontent-ng-c2070611396="" x="0" y="0">I</tspan></text><text _ngcontent-ng-c2070611396="" transform="translate(400.5 386.61) rotate(129.87)" class="b"><tspan _ngcontent-ng-c2070611396="" x="0" y="0">V</tspan></text><text _ngcontent-ng-c2070611396="" transform="translate(392.66 396.01) rotate(133.57)" class="b"><tspan _ngcontent-ng-c2070611396="" x="0" y="0">A</tspan></text><text _ngcontent-ng-c2070611396="" transform="translate(384.25 404.86) rotate(137.27)" class="b"><tspan _ngcontent-ng-c2070611396="" x="0" y="0">L</tspan></text><text _ngcontent-ng-c2070611396="" transform="translate(373.4 410.89) rotate(140.99)" class="b"><tspan _ngcontent-ng-c2070611396="" x="0" y="0"></tspan></text><text _ngcontent-ng-c2070611396="" transform="translate(364.07 418.46) rotate(144.69)" class="b"><tspan _ngcontent-ng-c2070611396="" x="0" y="0">*</tspan></text><text _ngcontent-ng-c2070611396="" transform="translate(355.79 427.95) rotate(148.38)" class="b"><tspan _ngcontent-ng-c2070611396="" x="0" y="0"></tspan></text><text _ngcontent-ng-c2070611396="" transform="translate(345.38 434.36) rotate(152.05)" class="b"><tspan _ngcontent-ng-c2070611396="" x="0" y="0">P</tspan></text><text _ngcontent-ng-c2070611396="" transform="translate(334.6 440.09) rotate(155.68)" class="b"><tspan _ngcontent-ng-c2070611396="" x="0" y="0">A</tspan></text><text _ngcontent-ng-c2070611396="" transform="translate(323.45 445.13) rotate(159.29)" class="b"><tspan _ngcontent-ng-c2070611396="" x="0" y="0">T</tspan></text><text _ngcontent-ng-c2070611396="" transform="translate(312.01 449.46) rotate(162.95)" class="b"><tspan _ngcontent-ng-c2070611396="" x="0" y="0">T</tspan></text><text _ngcontent-ng-c2070611396="" transform="translate(300.31 453.06) rotate(166.63)" class="b"><tspan _ngcontent-ng-c2070611396="" x="0" y="0">E</tspan></text><text _ngcontent-ng-c2070611396="" transform="translate(288.42 455.89) rotate(170.33)" class="b"><tspan _ngcontent-ng-c2070611396="" x="0" y="0">R</tspan></text><text _ngcontent-ng-c2070611396="" transform="translate(276.36 457.95) rotate(174.04)" class="b"><tspan _ngcontent-ng-c2070611396="" x="0" y="0">N</tspan></text><text _ngcontent-ng-c2070611396="" transform="translate(264.22 459.23) rotate(177.74)" class="b"><tspan _ngcontent-ng-c2070611396="" x="0" y="0"></tspan></text><text _ngcontent-ng-c2070611396="" transform="translate(251.99 459.72) rotate(-178.55)" class="b"><tspan _ngcontent-ng-c2070611396="" x="0" y="0">R</tspan></text><text _ngcontent-ng-c2070611396="" transform="translate(239.77 459.41) rotate(-174.85)" class="b"><tspan _ngcontent-ng-c2070611396="" x="0" y="0">E</tspan></text><text _ngcontent-ng-c2070611396="" transform="translate(227.62 458.33) rotate(-171.17)" class="b"><tspan _ngcontent-ng-c2070611396="" x="0" y="0">C</tspan></text><text _ngcontent-ng-c2070611396="" transform="translate(215.52 456.45) rotate(-167.49)" class="b"><tspan _ngcontent-ng-c2070611396="" x="0" y="0">O</tspan></text><text _ngcontent-ng-c2070611396="" transform="translate(203.56 453.8) rotate(-163.8)" class="b"><tspan _ngcontent-ng-c2070611396="" x="0" y="0">G</tspan></text><text _ngcontent-ng-c2070611396="" transform="translate(191.85 450.41) rotate(-160.14)" class="b"><tspan _ngcontent-ng-c2070611396="" x="0" y="0">N</tspan></text><text _ngcontent-ng-c2070611396="" transform="translate(180.33 446.26) rotate(-156.46)" class="b"><tspan _ngcontent-ng-c2070611396="" x="0" y="0">I</tspan></text><text _ngcontent-ng-c2070611396="" transform="translate(169.13 441.39) rotate(-152.79)" class="b"><tspan _ngcontent-ng-c2070611396="" x="0" y="0">T</tspan></text><text _ngcontent-ng-c2070611396="" transform="translate(158.25 435.8) rotate(-149.1)" class="b"><tspan _ngcontent-ng-c2070611396="" x="0" y="0">I</tspan></text><text _ngcontent-ng-c2070611396="" transform="translate(147.75 429.52) rotate(-145.41)" class="b"><tspan _ngcontent-ng-c2070611396="" x="0" y="0">O</tspan></text><text _ngcontent-ng-c2070611396="" transform="translate(137.68 422.59) rotate(-141.7)" class="b"><tspan _ngcontent-ng-c2070611396="" x="0" y="0">N</tspan></text><circle _ngcontent-ng-c2070611396="" cx="253.2" cy="270.26" r="33.34" class="d"></circle><circle _ngcontent-ng-c2070611396="" cx="253.18" cy="270.28" r="133.51" class="d"></circle><circle _ngcontent-ng-c2070611396="" cx="253.18" cy="270.28" r="16.32" class="c"></circle><circle _ngcontent-ng-c2070611396="" cx="252.38" cy="208.34" r="5.56" class="f"></circle><circle _ngcontent-ng-c2070611396="" cx="254.07" cy="332.18" r="5.56" class="f"></circle><circle _ngcontent-ng-c2070611396="" cx="179.95" cy="270.26" r="5.56" class="f"></circle><circle _ngcontent-ng-c2070611396="" cx="326.23" cy="270.26" r="5.56" class="f"></circle><path _ngcontent-ng-c2070611396="" d="M326.23,270.26s-32.31,33.34-72.16,33.34-72.16-33.34-72.16-33.34c0,0,32.31-33.34,72.16-33.34s72.16,33.34,72.16,33.34Z" class="d"></path><path _ngcontent-ng-c2070611396="" d="M402.67,270.26s-67.29,87.71-150.29,87.71-150.29-87.71-150.29-87.71c0,0,67.29-87.71,150.29-87.71s150.29,87.71,150.29,87.71Z" class="d"></path><polygon _ngcontent-ng-c2070611396="" points="250.11 95.36 402.71 180.85 404.98 355.75 254.64 445.16 102.04 359.67 99.78 184.77 250.11 95.36" class="g"></polygon></svg>